<svg width="11" height="40" viewBox="0 0 11 40" fill="none" xmlns="http://www.w3.org/2000/svg">
<path d="M3.55486 39.8282C3.54346 39.8282 3.53172 39.8271 3.52032 39.8245C3.4571 39.8107 3.40667 39.7615 3.38905 39.6959L2.16199 35.1825L1.48905 31.5175C1.39301 30.7354 1.28592 29.8614 1.26001 29.0024V7.59325C1.33186 6.13251 1.57886 4.95132 2.03763 3.86634C2.54026 2.67712 3.61567 0.616859 5.16848 0.178056C5.20372 0.167851 5.24172 0.170037 5.27626 0.184616C6.50401 0.692665 7.34346 1.57756 8.26963 3.34152C8.99888 4.73119 9.26108 6.14345 9.43001 7.8367L9.81726 27.4597C9.82279 27.7454 9.81726 28.034 9.80034 28.3686C9.75405 29.3009 9.6359 30.2809 9.44901 31.2817L8.98057 33.7924C8.77123 34.916 8.46066 36.0247 8.05821 37.0875L7.06503 39.713C7.04016 39.7782 6.98246 39.8227 6.91579 39.8271C6.8505 39.8325 6.78659 39.7957 6.75377 39.7349C6.45737 39.1813 6.30054 38.5526 6.30054 37.9162V35.1438C6.30054 34.6179 6.33336 34.0862 6.39761 33.5639L7.17212 27.2982L4.17081 27.2363L4.27617 28.8774C4.30381 29.3126 4.35459 29.7652 4.42714 30.2222C4.76568 32.363 5.37161 37.5777 3.6889 39.7604C3.65574 39.8037 3.60634 39.8282 3.55486 39.8282ZM5.20337 0.546883C4.18739 0.866874 3.15137 2.12607 2.35268 4.0154C1.91188 5.0581 1.67421 6.19812 1.60477 7.60309V28.9969C1.62999 29.8326 1.7357 30.6971 1.82932 31.4599L2.49708 35.0979L3.62223 39.2337C4.99748 36.9329 4.33283 31.8437 4.08617 30.2824C4.0119 29.8133 3.96008 29.349 3.93141 28.9022L3.81361 27.0628C3.8105 27.0114 3.82777 26.9618 3.86094 26.9246C3.8941 26.8871 3.94005 26.8671 3.98945 26.8682L7.37214 26.9378C7.42154 26.9389 7.46748 26.9618 7.49961 27.0012C7.53174 27.0405 7.54659 27.0923 7.54003 27.1437L6.74065 33.6113C6.67777 34.1182 6.64634 34.634 6.64634 35.1442V37.9166C6.64634 38.3561 6.72925 38.792 6.88885 39.1966L7.73763 36.9526C8.13214 35.911 8.43614 34.8242 8.64203 33.7225L9.11046 31.2117C9.2939 30.2281 9.40997 29.2652 9.45557 28.3497C9.47181 28.0238 9.47699 27.7439 9.47181 27.4673L9.08559 7.85966C8.91736 6.17916 8.6707 4.85874 7.96736 3.51828C7.09819 1.86366 6.31919 1.02432 5.20337 0.546883Z" fill="black"/>
<path d="M3.55484 18.3807H1.43237C1.33703 18.3807 1.25964 18.2991 1.25964 18.1985V11.1135C1.25964 11.0129 1.33703 10.9313 1.43237 10.9313H3.55484C3.65019 10.9313 3.72757 11.0129 3.72757 11.1135V18.1985C3.72757 18.2991 3.65019 18.3807 3.55484 18.3807ZM1.6051 18.0163H3.38212V11.2957H1.6051V18.0163Z" fill="black"/>
<path d="M9.46389 18.3078H6.80493C6.70958 18.3078 6.6322 18.2262 6.6322 18.1256V11.1135C6.6322 11.0129 6.70958 10.9313 6.80493 10.9313H9.46389C9.55924 10.9313 9.63662 11.0129 9.63662 11.1135V18.1256C9.63662 18.2262 9.55924 18.3078 9.46389 18.3078ZM6.97731 17.9434H9.29082V11.2957H6.97731V17.9434Z" fill="black"/>
<path d="M3.22296 26.7424H1.43213C1.33678 26.7424 1.2594 26.6607 1.2594 26.5602V20C1.2594 19.8994 1.33678 19.8177 1.43213 19.8177H3.22296C3.31831 19.8177 3.39569 19.8994 3.39569 20V26.5602C3.39569 26.6611 3.31865 26.7424 3.22296 26.7424ZM1.6052 26.3779H3.05058V20.1822H1.6052V26.3779Z" fill="black"/>
<path d="M9.64593 26.7424H7.40185C7.30651 26.7424 7.22913 26.6607 7.22913 26.5602V20C7.22913 19.8994 7.30651 19.8177 7.40185 19.8177H9.46387C9.55749 19.8177 9.63384 19.8961 9.6366 19.9945L9.81865 26.5547C9.82004 26.6039 9.80242 26.6516 9.7696 26.687C9.73747 26.7227 9.69256 26.7424 9.64593 26.7424ZM7.57458 26.3779H9.46802L9.29598 20.1822H7.57458V26.3779Z" fill="black"/>
<path d="M9.46389 4.98011C9.46285 4.98011 9.46216 4.98011 9.46112 4.98011L1.03169 4.84016C0.93634 4.8387 0.859996 4.75561 0.861723 4.65502C0.86345 4.55443 0.937031 4.47899 1.03721 4.47571L9.46665 4.61566C9.56199 4.61712 9.638 4.70021 9.63661 4.8008C9.63523 4.90066 9.55785 4.98011 9.46389 4.98011Z" fill="black"/>
<path d="M1.43624 10.0012L0.270678 9.878C0.175678 9.8678 0.106587 9.77851 0.11626 9.67828C0.125933 9.57842 0.211259 9.50918 0.305568 9.51537L1.44971 9.63783L3.8299 9.57988V7.00938L1.60517 6.99371V8.78719C1.60517 8.83967 1.58375 8.88961 1.5461 8.92423C1.50879 8.95885 1.45835 8.97525 1.40964 8.96796L0.414732 8.82801C0.320078 8.81453 0.25375 8.72305 0.266187 8.62319C0.278968 8.52333 0.364985 8.45372 0.460331 8.46647L1.25971 8.57909V6.96419L0.524587 6.83262C0.440296 6.81732 0.380533 6.74042 0.380533 6.65295C0.380533 6.64274 0.381222 6.63254 0.382949 6.62233C0.39884 6.5232 0.487969 6.45833 0.582278 6.47291L1.46111 6.63035L3.82955 6.64493V4.70603C3.82955 4.60544 3.90693 4.5238 4.00228 4.5238C4.09762 4.5238 4.175 4.60544 4.175 4.70603V9.75773C4.175 9.85687 4.10004 9.93777 4.00608 9.93996L1.43624 10.0012Z" fill="black"/>
<path d="M9.14615 9.91404L6.5542 9.85354C6.46058 9.85135 6.38562 9.77044 6.38562 9.67131V4.61961C6.38562 4.51902 6.463 4.43738 6.55835 4.43738C6.65369 4.43738 6.73107 4.51902 6.73107 4.61961V6.55741L9.01246 6.52607C9.03802 6.50347 9.07015 6.48816 9.10607 6.48415L9.98975 6.38539C10.0806 6.37372 10.1663 6.44406 10.1791 6.54174C10.1918 6.63941 10.1286 6.7298 10.0371 6.74656L9.31439 6.87594L9.43909 8.47371L10.101 8.38041C10.1922 8.36765 10.2823 8.4369 10.2951 8.53713C10.3079 8.63662 10.2416 8.72847 10.1469 8.74195L9.30471 8.8604C9.25669 8.86732 9.2104 8.85311 9.17344 8.82176C9.13647 8.79042 9.11333 8.7445 9.10953 8.69457L8.96824 6.88943L6.73107 6.92186V9.49345L9.13268 9.55067L10.2551 9.42931C10.3469 9.41984 10.435 9.49163 10.4444 9.59222C10.454 9.69208 10.3849 9.78174 10.2903 9.79194L9.14615 9.91404Z" fill="black"/>
</svg>
