<?xml version="1.0" encoding="utf-8"?>
<!-- Generator: Adobe Illustrator 26.0.1, SVG Export Plug-In . SVG Version: 6.00 Build 0)  -->
<svg version="1.1" id="Layer_1" xmlns="http://www.w3.org/2000/svg" xmlns:xlink="http://www.w3.org/1999/xlink" x="0px" y="0px"
	 viewBox="0 0 200 200" enable-background="new 0 0 200 200" xml:space="preserve">
<g>
	<path fill="none" stroke="#000000" stroke-linecap="round" stroke-linejoin="round" stroke-miterlimit="10" d="M100.151,36.723
		L100.151,36.723c-8.589,0-13.4,7.155-13.4,15.744l-1.027,94.347c-0.02,1.804,0.076,3.607,0.287,5.399l0.259,2.206l-1.056,8.16
		h29.872l-1.056-8.16l0.26-2.206c0.211-1.792,0.307-3.595,0.287-5.399l-1.027-94.347C113.551,43.878,108.74,36.723,100.151,36.723
		L100.151,36.723"/>
	<polyline fill="none" stroke="#000000" stroke-linecap="round" stroke-linejoin="round" stroke-miterlimit="10" points="
		87.413,57.747 98.726,57.747 98.726,62.131 87.413,62.131 	"/>
	<polyline fill="none" stroke="#000000" stroke-linecap="round" stroke-linejoin="round" stroke-miterlimit="10" points="
		87.204,66.818 96.393,66.818 96.393,69.987 87.413,70.227 	"/>
	<polyline fill="none" stroke="#000000" stroke-linecap="round" stroke-linejoin="round" stroke-miterlimit="10" points="
		87.204,75.363 96.013,75.363 96.013,78.051 86.946,78.051 	"/>
	<polyline fill="none" stroke="#000000" stroke-linecap="round" stroke-linejoin="round" stroke-miterlimit="10" points="
		87.204,82.731 96.013,82.731 96.013,85.827 87.204,85.827 	"/>
	<polyline fill="none" stroke="#000000" stroke-linecap="round" stroke-linejoin="round" stroke-miterlimit="10" points="
		86.655,90.723 96.013,90.723 96.013,93.747 86.585,93.747 	"/>
	<polyline fill="none" stroke="#000000" stroke-linecap="round" stroke-linejoin="round" stroke-miterlimit="10" points="
		86.473,98.644 96.393,98.644 96.393,101.883 86.585,101.883 	"/>
	<polyline fill="none" stroke="#000000" stroke-linecap="round" stroke-linejoin="round" stroke-miterlimit="10" points="
		86.291,106.563 97.002,106.563 97.002,109.635 86.22,109.635 	"/>
	<polyline fill="none" stroke="#000000" stroke-linecap="round" stroke-linejoin="round" stroke-miterlimit="10" points="
		86.127,113.667 97.408,113.667 97.408,117.171 86.047,117.171 	"/>
	<g>
		<polyline fill="none" stroke="#000000" stroke-linecap="round" stroke-linejoin="round" stroke-miterlimit="10" points="
			112.985,56.835 103.868,56.835 103.868,61.219 112.985,61.219 		"/>
		<polyline fill="none" stroke="#000000" stroke-linecap="round" stroke-linejoin="round" stroke-miterlimit="10" points="
			113.153,65.906 105.748,65.906 105.748,69.075 112.985,69.315 		"/>
		<polyline fill="none" stroke="#000000" stroke-linecap="round" stroke-linejoin="round" stroke-miterlimit="10" points="
			113.153,74.451 106.055,74.451 106.055,77.139 113.362,77.139 		"/>
		<polyline fill="none" stroke="#000000" stroke-linecap="round" stroke-linejoin="round" stroke-miterlimit="10" points="
			113.153,81.819 106.055,81.819 106.055,84.915 113.153,84.915 		"/>
		<polyline fill="none" stroke="#000000" stroke-linecap="round" stroke-linejoin="round" stroke-miterlimit="10" points="
			113.596,89.812 106.055,89.812 106.055,92.835 113.652,92.835 		"/>
		<polyline fill="none" stroke="#000000" stroke-linecap="round" stroke-linejoin="round" stroke-miterlimit="10" points="
			113.743,97.732 105.748,97.732 105.748,100.971 113.652,100.971 		"/>
		<polyline fill="none" stroke="#000000" stroke-linecap="round" stroke-linejoin="round" stroke-miterlimit="10" points="
			113.89,105.651 105.258,105.651 105.258,108.723 113.947,108.723 		"/>
		<polyline fill="none" stroke="#000000" stroke-linecap="round" stroke-linejoin="round" stroke-miterlimit="10" points="
			114.022,112.755 104.931,112.755 104.931,116.259 114.086,116.259 		"/>
	</g>
	<polyline fill="none" stroke="#000000" stroke-linecap="round" stroke-linejoin="round" stroke-miterlimit="10" points="
		87.199,125.571 94.975,125.571 94.975,135.939 106.927,135.939 106.927,125.571 114.346,125.571 	"/>
	
		<line fill="none" stroke="#000000" stroke-linecap="round" stroke-linejoin="round" stroke-miterlimit="10" x1="85.827" y1="150.195" x2="114.346" y2="150.195"/>
	
		<line fill="none" stroke="#000000" stroke-linecap="round" stroke-linejoin="round" stroke-miterlimit="10" x1="90.943" y1="42.291" x2="109.19" y2="42.291"/>
	
		<line fill="none" stroke="#000000" stroke-linecap="round" stroke-linejoin="round" stroke-miterlimit="10" x1="90.943" y1="45.843" x2="98.959" y2="45.843"/>
	
		<line fill="none" stroke="#000000" stroke-linecap="round" stroke-linejoin="round" stroke-miterlimit="10" x1="101.839" y1="45.843" x2="109.999" y2="45.843"/>
</g>
</svg>
