<?xml version="1.0" encoding="utf-8"?>
<!-- Generator: Adobe Illustrator 26.0.1, SVG Export Plug-In . SVG Version: 6.00 Build 0)  -->
<svg version="1.1" id="Layer_1" xmlns="http://www.w3.org/2000/svg" xmlns:xlink="http://www.w3.org/1999/xlink" x="0px" y="0px"
	 viewBox="0 0 200 200" enable-background="new 0 0 200 200" xml:space="preserve">
<g>
	<g>
		<path d="M109.432,176.581H89.426c-0.256,0-0.471-0.193-0.498-0.449l-4.082-39.673c-0.351-3.406-0.528-6.872-0.528-10.301V69.227
			c0-9.184,2.286-18.321,6.611-26.424l8.063-14.351c0.178-0.314,0.694-0.314,0.872,0l8.058,14.341
			c4.33,8.112,6.616,17.249,6.616,26.434v56.932c0,3.423-0.178,6.889-0.528,10.301l-4.082,39.673
			C109.902,176.388,109.688,176.581,109.432,176.581z M97.143,175.581h11.837l4.036-39.224c0.347-3.379,0.522-6.811,0.522-10.199
			V69.227c0-9.021-2.245-17.995-6.493-25.953l-7.617-13.556l-7.623,13.566c-4.243,7.949-6.488,16.923-6.488,25.943v56.932
			c0,3.395,0.176,6.826,0.523,10.199l4.036,39.224H97.143z"/>
	</g>
	<g>
		<path d="M108.242,111.517c-0.276,0-0.5-0.224-0.5-0.5V73.044h-16.28v37.972c0,0.276-0.224,0.5-0.5,0.5s-0.5-0.224-0.5-0.5V72.544
			c0-0.276,0.224-0.5,0.5-0.5h17.28c0.276,0,0.5,0.224,0.5,0.5v38.472C108.742,111.293,108.519,111.517,108.242,111.517z"/>
	</g>
	<g>
		<path d="M110.812,163.168H88.046c-0.256,0-0.471-0.193-0.498-0.449l-0.783-7.609c-0.014-0.141,0.032-0.28,0.126-0.386
			s0.229-0.165,0.371-0.165h24.332c0.142,0,0.276,0.06,0.371,0.165s0.141,0.245,0.126,0.386l-0.783,7.609
			C111.282,162.975,111.067,163.168,110.812,163.168z M88.497,162.168h21.863l0.681-6.609H87.817L88.497,162.168z"/>
	</g>
	<g>
		<path d="M103.674,142.165h-6.72c-0.276,0-0.5-0.224-0.5-0.5v-10.368c0-0.276,0.224-0.5,0.5-0.5h6.72c0.276,0,0.5,0.224,0.5,0.5
			v10.368C104.174,141.941,103.95,142.165,103.674,142.165z M97.454,141.165h5.72v-9.368h-5.72V141.165z"/>
	</g>
	<g>
		<path d="M112.269,55.812c-0.199,0-0.388-0.12-0.465-0.317c-3.704-9.401-7.708-14.168-11.9-14.168
			c-7.185,0-12.794,14.027-12.85,14.168c-0.102,0.257-0.393,0.383-0.648,0.282c-0.257-0.102-0.383-0.392-0.282-0.648
			c0.238-0.604,5.921-14.802,13.78-14.802c4.644,0,8.96,4.98,12.83,14.802c0.102,0.257-0.024,0.547-0.281,0.648
			C112.392,55.801,112.33,55.812,112.269,55.812z"/>
	</g>
	<g>
		<path d="M90.41,62.253h-5.086c-0.276,0-0.5-0.224-0.5-0.5s0.224-0.5,0.5-0.5h4.586v-2.531h-3.992c-0.276,0-0.5-0.224-0.5-0.5
			s0.224-0.5,0.5-0.5h4.492c0.276,0,0.5,0.224,0.5,0.5v3.531C90.91,62.029,90.686,62.253,90.41,62.253z"/>
	</g>
	<g>
		<path d="M90.05,68.677h-5.232c-0.276,0-0.5-0.224-0.5-0.5s0.224-0.5,0.5-0.5h4.732v-2.32h-4.226c-0.276,0-0.5-0.224-0.5-0.5
			s0.224-0.5,0.5-0.5h4.726c0.276,0,0.5,0.224,0.5,0.5v3.32C90.55,68.453,90.326,68.677,90.05,68.677z"/>
	</g>
	<g>
		<path d="M114.039,68.677h-6.949c-0.276,0-0.5-0.224-0.5-0.5v-3.32c0-0.276,0.224-0.5,0.5-0.5h6.347l-0.33-2.104h-6.017
			c-0.276,0-0.5-0.224-0.5-0.5v-4.664c0-0.276,0.224-0.5,0.5-0.5h5.608c0.276,0,0.5,0.224,0.5,0.5s-0.224,0.5-0.5,0.5h-5.108v3.664
			h5.944c0.246,0,0.456,0.179,0.494,0.422l0.476,3.033c0.022,0.145-0.033,0.341-0.128,0.452c-0.096,0.111-0.281,0.197-0.428,0.197
			h-6.358v2.32h6.449c0.276,0,0.5,0.224,0.5,0.5S114.315,68.677,114.039,68.677z"/>
	</g>
	<g>
		<g>
			<path d="M90.434,120.732h-5.328c-0.276,0-0.5-0.224-0.5-0.5s0.224-0.5,0.5-0.5h4.828v-1.903h-5.116c-0.276,0-0.5-0.224-0.5-0.5
				s0.224-0.5,0.5-0.5h5.616c0.276,0,0.5,0.224,0.5,0.5v2.903C90.934,120.509,90.71,120.732,90.434,120.732z"/>
		</g>
		<g>
			<path d="M90.962,127.524h-6.144c-0.276,0-0.5-0.224-0.5-0.5s0.224-0.5,0.5-0.5h5.644v-1.784h-5.644c-0.276,0-0.5-0.224-0.5-0.5
				s0.224-0.5,0.5-0.5h6.144c0.276,0,0.5,0.224,0.5,0.5v2.784C91.462,127.301,91.238,127.524,90.962,127.524z"/>
		</g>
		<g>
			<path d="M90.962,136.333h-6.144c-0.276,0-0.5-0.224-0.5-0.5s0.224-0.5,0.5-0.5h5.644v-1.88h-5.644c-0.276,0-0.5-0.224-0.5-0.5
				s0.224-0.5,0.5-0.5h6.144c0.276,0,0.5,0.224,0.5,0.5v2.88C91.462,136.109,91.238,136.333,90.962,136.333z"/>
		</g>
		<g>
			<path d="M90.962,144.324h-4.855c-0.276,0-0.5-0.224-0.5-0.5s0.224-0.5,0.5-0.5h4.355v-1.596H85.84c-0.276,0-0.5-0.224-0.5-0.5
				s0.224-0.5,0.5-0.5h5.122c0.276,0,0.5,0.224,0.5,0.5v2.596C91.462,144.101,91.238,144.324,90.962,144.324z"/>
		</g>
	</g>
	<g>
		<g>
			<g>
				<path d="M118.725,133.98c-0.003,0-0.006,0-0.01,0c-0.221-0.004-0.412-0.152-0.472-0.365c-0.04-0.143-0.945-3.4-1.274-6.471
					l-3.011-0.493c-0.272-0.044-0.457-0.302-0.412-0.574c0.044-0.272,0.307-0.461,0.574-0.412l3.39,0.555
					c0.225,0.036,0.396,0.221,0.417,0.448c0.152,1.68,0.516,3.5,0.816,4.815c1.675-7.376,1.979-21.389,0.986-22.955
					c-0.016,0.009-0.031,0.019-0.042,0.027c-0.825,0.6-1.608,3.994-1.909,5.993c-0.036,0.245-0.247,0.426-0.494,0.426
					c-0.005,0-0.011,0-0.017,0l-4.435-0.146h-5.1v1.903h6.087c0.276,0,0.5,0.224,0.5,0.5s-0.224,0.5-0.5,0.5h-6.587
					c-0.276,0-0.5-0.224-0.5-0.5v-2.903c0-0.276,0.224-0.5,0.5-0.5h5.616l4.01,0.131c0.249-1.491,0.994-5.308,2.24-6.214
					c0.34-0.246,0.654-0.258,0.858-0.223c0.237,0.039,0.437,0.189,0.593,0.444c1.398,2.293,0.772,19.053-1.351,25.665
					C119.134,133.841,118.941,133.98,118.725,133.98z"/>
			</g>
			<g>
				<path d="M114.012,124.524h-7.306c-0.276,0-0.5-0.224-0.5-0.5v-2.784c0-0.276,0.224-0.5,0.5-0.5h7.306c0.276,0,0.5,0.224,0.5,0.5
					s-0.224,0.5-0.5,0.5h-6.806v1.784h6.806c0.276,0,0.5,0.224,0.5,0.5S114.288,124.524,114.012,124.524z"/>
			</g>
			<g>
				<path d="M113.816,133.333h-7.11c-0.276,0-0.5-0.224-0.5-0.5v-2.88c0-0.276,0.224-0.5,0.5-0.5h7.261c0.276,0,0.5,0.224,0.5,0.5
					s-0.224,0.5-0.5,0.5h-6.761v1.88h6.61c0.276,0,0.5,0.224,0.5,0.5S114.093,133.333,113.816,133.333z"/>
			</g>
			<g>
				<path d="M112.765,141.324h-6.059c-0.276,0-0.5-0.224-0.5-0.5v-2.596c0-0.276,0.224-0.5,0.5-0.5h6.442c0.276,0,0.5,0.224,0.5,0.5
					s-0.224,0.5-0.5,0.5h-5.942v1.596h5.559c0.276,0,0.5,0.224,0.5,0.5S113.041,141.324,112.765,141.324z"/>
			</g>
		</g>
		<g>
			<path d="M117.428,127.213c-0.255,0-0.474-0.195-0.497-0.455c-0.033-0.371-0.818-9.123-0.136-12.386
				c0.056-0.271,0.317-0.447,0.592-0.387c0.271,0.057,0.443,0.321,0.387,0.592c-0.651,3.117,0.146,12.001,0.153,12.091
				c0.025,0.274-0.178,0.518-0.453,0.543C117.459,127.212,117.443,127.213,117.428,127.213z"/>
		</g>
	</g>
	<g>
		<g>
			<path d="M80.643,129.98c-0.217,0-0.41-0.14-0.476-0.348c-2.123-6.612-2.749-23.372-1.351-25.665
				c0.156-0.255,0.355-0.405,0.593-0.444c0.204-0.036,0.52-0.023,0.858,0.223c1.246,0.906,1.992,4.723,2.24,6.214l2.294-0.075
				c0.274,0.002,0.507,0.207,0.516,0.483s-0.207,0.507-0.483,0.517l-2.735,0.09c-0.267-0.008-0.473-0.176-0.511-0.426
				c-0.3-1.999-1.083-5.394-1.909-5.993c-0.011-0.009-0.025-0.019-0.041-0.027c-0.993,1.566-0.688,15.579,0.987,22.956
				c0.3-1.315,0.664-3.137,0.816-4.816c0.021-0.229,0.195-0.415,0.423-0.449l2.879-0.437c0.272-0.042,0.528,0.146,0.569,0.419
				c0.042,0.273-0.146,0.528-0.419,0.569l-2.495,0.379c-0.329,3.068-1.234,6.323-1.274,6.466c-0.06,0.213-0.251,0.361-0.472,0.365
				C80.649,129.98,80.646,129.98,80.643,129.98z"/>
		</g>
		<g>
			<path d="M81.939,123.213c-0.015,0-0.03-0.001-0.046-0.002c-0.275-0.025-0.478-0.269-0.453-0.543
				c0.008-0.09,0.805-8.975,0.152-12.091c-0.057-0.271,0.117-0.535,0.387-0.592c0.271-0.063,0.535,0.117,0.592,0.387
				c0.683,3.263-0.101,12.015-0.135,12.386C82.413,123.018,82.195,123.213,81.939,123.213z"/>
		</g>
	</g>
	<g>
		<g>
			<path d="M117.437,163.168c-0.022,0-0.045-0.002-0.067-0.005c-0.176-0.023-0.325-0.139-0.394-0.303
				c-0.062-0.145-5.976-14.637,2.448-23.696c0.123-0.132,0.308-0.185,0.483-0.146c0.176,0.043,0.315,0.177,0.364,0.351
				c0.173,0.616,4.167,15.181-2.441,23.607C117.734,163.099,117.589,163.168,117.437,163.168z M119.534,140.558
				c-6.014,7.346-3.006,17.993-1.951,21.062C122.271,154.697,120.268,143.772,119.534,140.558z"/>
		</g>
		<g>
			<path d="M116.172,146.437c-0.048,0-0.096-0.007-0.145-0.021l-3.529-1.063c-0.264-0.079-0.414-0.358-0.334-0.623
				c0.08-0.264,0.355-0.413,0.623-0.334l3.529,1.063c0.264,0.079,0.414,0.358,0.334,0.623
				C116.585,146.297,116.387,146.437,116.172,146.437z"/>
		</g>
		<g>
			<path d="M115.569,155.559c-0.029,0-0.058-0.002-0.087-0.008l-3.903-0.684c-0.272-0.047-0.454-0.307-0.406-0.578
				c0.047-0.273,0.311-0.462,0.578-0.406l3.903,0.684c0.272,0.047,0.454,0.307,0.406,0.578
				C116.019,155.388,115.808,155.559,115.569,155.559z"/>
		</g>
	</g>
	<g>
		<g>
			<path d="M81.63,163.168c-0.152,0-0.298-0.069-0.394-0.191c-6.609-8.427-2.615-22.991-2.442-23.607
				c0.049-0.174,0.188-0.308,0.364-0.351c0.176-0.038,0.361,0.014,0.484,0.146c8.424,9.06,2.51,23.552,2.449,23.696
				c-0.068,0.164-0.218,0.279-0.395,0.303C81.675,163.166,81.653,163.168,81.63,163.168z M79.532,140.558
				c-0.733,3.215-2.737,14.14,1.952,21.062C82.539,158.551,85.546,147.903,79.532,140.558z"/>
		</g>
		<g>
			<path d="M82.895,146.437c-0.215,0-0.414-0.14-0.479-0.355c-0.08-0.265,0.07-0.544,0.334-0.623l3.327-1.002
				c0.262-0.082,0.543,0.07,0.623,0.334c0.08,0.265-0.07,0.544-0.334,0.623l-3.327,1.002
				C82.991,146.43,82.942,146.437,82.895,146.437z"/>
		</g>
		<g>
			<path d="M83.498,155.559c-0.238,0-0.45-0.171-0.492-0.414c-0.047-0.271,0.134-0.531,0.406-0.578l3.698-0.647
				c0.274-0.055,0.532,0.134,0.579,0.406c0.047,0.271-0.134,0.531-0.406,0.578l-3.698,0.647
				C83.556,155.557,83.526,155.559,83.498,155.559z"/>
		</g>
	</g>
</g>
</svg>
