<?xml version="1.0" encoding="utf-8"?>
<!-- Generator: Adobe Illustrator 26.0.1, SVG Export Plug-In . SVG Version: 6.00 Build 0)  -->
<svg version="1.1" id="Layer_1" xmlns="http://www.w3.org/2000/svg" xmlns:xlink="http://www.w3.org/1999/xlink" x="0px" y="0px"
	 viewBox="0 0 200 200" enable-background="new 0 0 200 200" xml:space="preserve">
<g>
	<g>
		<path d="M102.779,163.332c-0.006,0-0.013,0-0.019,0l-9.494-0.354c-0.236-0.009-0.434-0.182-0.474-0.414s0.087-0.462,0.306-0.55
			l1.753-0.705c0.811-0.326,1.393-1.033,1.557-1.892l0.321-1.676c0.133-0.699,0.084-1.425-0.143-2.1l-1.022-3.031
			c-0.079-0.237-0.013-0.499,0.166-0.668c0.488-0.459,0.754-1.104,0.733-1.77c-0.021-0.667-0.329-1.293-0.844-1.718
			c-0.115-0.095-0.182-0.236-0.182-0.385l-0.019-14.135c-0.001-1.347-0.125-2.701-0.365-4.025l-0.493-2.712L94.46,85.603
			c-0.068-2.216,0.062-4.466,0.387-6.672l2.853-19.398l-2.222-4.003c-0.042-0.076-0.064-0.161-0.063-0.248l0.006-0.611
			c0.01-1.15-0.484-2.24-1.356-2.99c-0.11-0.094-0.173-0.232-0.174-0.377l-0.029-7.398c-0.004-1.011-0.163-2.013-0.472-2.977
			l-1.382-4.307c-0.077-0.24,0.036-0.499,0.264-0.606c0.23-0.105,0.501-0.026,0.634,0.186l1.961,3.097
			c0.547,0.864,0.923,1.812,1.117,2.817l1.155,5.996c0.288,1.493,0.743,2.954,1.353,4.343l3.268,7.439
			c0.323,0.736,0.59,1.5,0.795,2.272l4.915,18.527c0.563,2.129,0.85,4.324,0.85,6.524l-0.941,42.796
			c-0.045,2.032-0.251,4.073-0.613,6.069l-4.099,22.6c-0.24,1.326-0.04,2.72,0.562,3.926c0.079,0.158,0.068,0.346-0.027,0.494
			C103.107,163.246,102.949,163.332,102.779,163.332z M95.594,162.063l6.415,0.239c-0.44-1.208-0.558-2.53-0.328-3.798l4.099-22.601
			c0.354-1.944,0.555-3.934,0.598-5.912l0.941-42.786c0-2.103-0.274-4.211-0.816-6.256l-4.915-18.527
			c-0.191-0.722-0.441-1.438-0.744-2.126l-3.267-7.439c-0.64-1.458-1.118-2.99-1.419-4.556l-1.155-5.996
			c-0.153-0.793-0.435-1.545-0.839-2.241l0.179,0.559c0.34,1.062,0.516,2.164,0.52,3.278l0.028,7.177
			c0.988,0.935,1.543,2.234,1.531,3.602l-0.004,0.479l2.24,4.036c0.053,0.096,0.074,0.207,0.058,0.315l-2.877,19.565
			c-0.316,2.148-0.442,4.338-0.376,6.511l0.093,41.521l0.485,2.623c0.252,1.384,0.38,2.798,0.382,4.203l0.018,13.911
			c0.627,0.6,0.997,1.423,1.025,2.296c0.028,0.874-0.29,1.722-0.879,2.36l0.951,2.821c0.282,0.838,0.343,1.739,0.178,2.606
			l-0.321,1.676C97.189,160.665,96.528,161.559,95.594,162.063z"/>
	</g>
	<g>
		<path d="M100.151,144.706h-4.314c-0.276,0-0.5-0.224-0.5-0.5s0.224-0.5,0.5-0.5h3.814v-11.173h-3.814c-0.276,0-0.5-0.224-0.5-0.5
			s0.224-0.5,0.5-0.5h4.314c0.276,0,0.5,0.224,0.5,0.5v12.173C100.651,144.482,100.427,144.706,100.151,144.706z"/>
	</g>
	<g>
		<path d="M99.418,125.361h-4.387c-0.276,0-0.5-0.224-0.5-0.5s0.224-0.5,0.5-0.5h3.887v-4.759h-3.887c-0.276,0-0.5-0.224-0.5-0.5
			s0.224-0.5,0.5-0.5h4.387c0.276,0,0.5,0.224,0.5,0.5v5.759C99.918,125.138,99.695,125.361,99.418,125.361z"/>
	</g>
	<g>
		<path d="M107.117,125.361h-4.387c-0.276,0-0.5-0.224-0.5-0.5v-5.759c0-0.276,0.224-0.5,0.5-0.5h4.387c0.276,0,0.5,0.224,0.5,0.5
			s-0.224,0.5-0.5,0.5h-3.887v4.759h3.887c0.276,0,0.5,0.224,0.5,0.5S107.394,125.361,107.117,125.361z"/>
	</g>
	<g>
		<path d="M99.875,117.105h-4.87c-0.276,0-0.5-0.224-0.5-0.5s0.224-0.5,0.5-0.5h4.37v-6.632h-4.37c-0.276,0-0.5-0.224-0.5-0.5
			s0.224-0.5,0.5-0.5h4.87c0.276,0,0.5,0.224,0.5,0.5v7.632C100.375,116.882,100.151,117.105,99.875,117.105z"/>
	</g>
	<g>
		<path d="M107.172,117.105h-4.825c-0.276,0-0.5-0.224-0.5-0.5v-7.953c0-0.276,0.224-0.5,0.5-0.5h5c0.276,0,0.5,0.224,0.5,0.5
			s-0.224,0.5-0.5,0.5h-4.5v6.953h4.325c0.276,0,0.5,0.224,0.5,0.5S107.448,117.105,107.172,117.105z"/>
	</g>
	<g>
		<path d="M103.787,106.786h-6.348c-0.276,0-0.5-0.224-0.5-0.5V86.222c0-0.276,0.224-0.5,0.5-0.5h6.348c0.276,0,0.5,0.224,0.5,0.5
			v20.064C104.287,106.562,104.063,106.786,103.787,106.786z M97.939,105.786h5.348V86.722h-5.348V105.786z"/>
	</g>
	<g>
		<path d="M95.284,79.912c-0.273,0-0.496-0.219-0.5-0.493c-0.004-0.276,0.217-0.503,0.493-0.507l11.284-0.159
			c0.267-0.014,0.503,0.217,0.507,0.493s-0.217,0.503-0.493,0.507l-11.284,0.159C95.289,79.912,95.287,79.912,95.284,79.912z"/>
	</g>
	<g>
		<path d="M100.613,83.217h-5.63c-0.276,0-0.5-0.224-0.5-0.5s0.224-0.5,0.5-0.5h5.13v-2.964c0-0.276,0.224-0.5,0.5-0.5
			s0.5,0.224,0.5,0.5v3.464C101.113,82.993,100.89,83.217,100.613,83.217z"/>
	</g>
	<g>
		<path d="M107.409,83.217h-5.446c-0.276,0-0.5-0.224-0.5-0.5v-3.464c0-0.276,0.224-0.5,0.5-0.5s0.5,0.224,0.5,0.5v2.964h4.946
			c0.276,0,0.5,0.224,0.5,0.5S107.686,83.217,107.409,83.217z"/>
	</g>
	<g>
		<path d="M103.848,69.495h-7.035c-0.276,0-0.5-0.224-0.5-0.5s0.224-0.5,0.5-0.5h7.035c0.276,0,0.5,0.224,0.5,0.5
			S104.124,69.495,103.848,69.495z"/>
	</g>
	<g>
		<path d="M104.604,72.55h-8.24c-0.276,0-0.5-0.224-0.5-0.5s0.224-0.5,0.5-0.5h8.24c0.276,0,0.5,0.224,0.5,0.5
			S104.88,72.55,104.604,72.55z"/>
	</g>
	<g>
		<path d="M105.299,75.21h-9.326c-0.276,0-0.5-0.224-0.5-0.5s0.224-0.5,0.5-0.5h9.326c0.276,0,0.5,0.224,0.5,0.5
			S105.575,75.21,105.299,75.21z"/>
	</g>
</g>
</svg>
