<?xml version="1.0" encoding="utf-8"?>
<!-- Generator: Adobe Illustrator 26.0.1, SVG Export Plug-In . SVG Version: 6.00 Build 0)  -->
<svg version="1.1" id="Layer_1" xmlns="http://www.w3.org/2000/svg" xmlns:xlink="http://www.w3.org/1999/xlink" x="0px" y="0px"
	 viewBox="0 0 200 200" enable-background="new 0 0 200 200" xml:space="preserve">
<g>
	<g>
		<path d="M101.096,155.036c-5.228,0-8.797-2.284-11.572-7.406c-2.056-3.795-2.802-7.685-3.29-12.358
			c-0.082-0.781-0.128-1.59-0.141-2.47l-1.082-71.105c0.026-2.213,0.322-4.358,0.878-6.39c2.556-9.328,6.767-13.133,14.534-13.133
			c6.985,0,10.97,2.975,13.323,9.947c0.962,2.848,1.48,6.007,1.543,9.391l-0.434,76.325
			C114.856,146.118,110.55,155.036,101.096,155.036z M100.424,43.173c-7.226,0-11.157,3.592-13.569,12.398
			c-0.535,1.95-0.818,4.01-0.843,6.124l1.082,71.091c0.013,0.851,0.057,1.63,0.135,2.382c0.476,4.555,1.198,8.336,3.175,11.985
			c2.579,4.76,5.876,6.883,10.693,6.883c8.815,0,12.761-8.138,12.761-16.203l0.434-76.315c-0.061-3.269-0.562-6.328-1.49-9.078
			C110.607,45.945,106.906,43.173,100.424,43.173z"/>
	</g>
	<g>
		<path d="M94.952,70.172h-9.319c-0.276,0-0.5-0.224-0.5-0.5v-2.88c0-0.276,0.224-0.5,0.5-0.5h9.319c0.276,0,0.5,0.224,0.5,0.5v2.88
			C95.452,69.948,95.228,70.172,94.952,70.172z M86.133,69.172h8.319v-1.88h-8.319V69.172z"/>
	</g>
	<g>
		<path d="M94.952,60.572h-9.371c-0.144,0-0.281-0.062-0.376-0.171c-0.095-0.108-0.138-0.252-0.119-0.396l0.385-2.88
			c0.033-0.248,0.245-0.434,0.496-0.434h8.986c0.276,0,0.5,0.224,0.5,0.5v2.88C95.452,60.348,95.228,60.572,94.952,60.572z
			 M86.152,59.572h8.299v-1.88h-8.048L86.152,59.572z"/>
	</g>
	<g>
		<path d="M94.952,79.772h-9.173c-0.138,0-0.27-0.057-0.364-0.157c-0.095-0.1-0.144-0.235-0.135-0.373l0.173-2.88
			c0.016-0.264,0.234-0.47,0.499-0.47h9c0.276,0,0.5,0.224,0.5,0.5v2.88C95.452,79.548,95.228,79.772,94.952,79.772z M86.31,78.772
			h8.142v-1.88h-8.029L86.31,78.772z"/>
	</g>
	<g>
		<path d="M114.681,65.012h-9.265c-0.276,0-0.5-0.224-0.5-0.5v-2.88c0-0.274,0.221-0.497,0.494-0.5l9.374-0.111
			c0.144,0.006,0.269,0.053,0.363,0.151c0.096,0.098,0.147,0.23,0.143,0.367l-0.109,2.991
			C115.171,64.799,114.949,65.012,114.681,65.012z M105.916,64.012h8.282l0.073-1.985l-8.355,0.099V64.012z"/>
	</g>
	<g>
		<path d="M114.681,74.732h-9.265c-0.276,0-0.5-0.224-0.5-0.5v-2.88c0-0.276,0.224-0.5,0.5-0.5h9.265c0.276,0,0.5,0.224,0.5,0.5
			v2.88C115.181,74.508,114.957,74.732,114.681,74.732z M105.916,73.732h8.265v-1.88h-8.265V73.732z"/>
	</g>
	<g>
		<path d="M114.624,84.452h-9.208c-0.276,0-0.5-0.224-0.5-0.5v-2.88c0-0.269,0.213-0.49,0.481-0.5l9.265-0.336
			c0.163-0.001,0.271,0.047,0.369,0.143c0.098,0.096,0.151,0.229,0.149,0.366l-0.057,3.216
			C115.119,84.233,114.896,84.452,114.624,84.452z M105.916,83.452h8.217l0.039-2.198l-8.256,0.3V83.452z"/>
	</g>
	<g>
		<path d="M114.607,94.172h-9.191c-0.276,0-0.5-0.224-0.5-0.5v-2.88c0-0.276,0.224-0.5,0.5-0.5h9.208
			c0.133,0,0.261,0.053,0.354,0.147s0.146,0.222,0.146,0.355l-0.017,2.88C115.105,93.95,114.883,94.172,114.607,94.172z
			 M105.916,93.172h8.194l0.011-1.88h-8.205V93.172z"/>
	</g>
	<g>
		<path d="M94.952,89.372h-8.854c-0.276,0-0.5-0.224-0.5-0.5v-2.88c0-0.276,0.224-0.5,0.5-0.5h8.854c0.276,0,0.5,0.224,0.5,0.5v2.88
			C95.452,89.148,95.228,89.372,94.952,89.372z M86.598,88.372h7.854v-1.88h-7.854V88.372z"/>
	</g>
	<g>
		<path d="M94.952,150.86c-3.905,0-5.505-2.797-6.555-5.533c-1.001-2.61-2.158-8.335-2.25-11.136l-0.549-33.937
			c-0.002-0.134,0.05-0.264,0.144-0.359c0.094-0.096,0.223-0.149,0.356-0.149h8.854c0.276,0,0.5,0.224,0.5,0.5v50.114
			C95.452,150.637,95.228,150.86,94.952,150.86z M86.606,100.747l0.54,33.42c0.088,2.658,1.231,8.316,2.185,10.803
			c1.248,3.25,2.754,4.7,5.121,4.873v-49.096H86.606z"/>
	</g>
	<g>
		<path d="M107.312,150.908c-0.29,0-0.588-0.017-0.895-0.051c-0.254-0.028-0.445-0.242-0.445-0.497v-50.114
			c0-0.276,0.224-0.5,0.5-0.5h8.099c0.134,0,0.262,0.054,0.355,0.149c0.095,0.095,0.146,0.224,0.145,0.357l-0.479,37.316
			c-0.088,2.745-0.188,5.857-1.148,8.363C112.162,149.272,110.151,150.908,107.312,150.908z M106.972,149.899
			c2.586,0.11,4.361-1.258,5.538-4.324c0.9-2.35,0.997-5.371,1.083-8.038l0.013-0.403l0.459-36.387h-7.093V149.899z"/>
	</g>
	<g>
		<path d="M109.64,150.86H92.936c-0.276,0-0.5-0.224-0.5-0.5s0.224-0.5,0.5-0.5h16.704c0.276,0,0.5,0.224,0.5,0.5
			S109.916,150.86,109.64,150.86z"/>
	</g>
	<g>
		<path d="M112.583,50.972H88.52c-0.276,0-0.5-0.224-0.5-0.5s0.224-0.5,0.5-0.5h24.063c0.276,0,0.5,0.224,0.5,0.5
			S112.859,50.972,112.583,50.972z"/>
	</g>
	<g>
		<path d="M113.83,157.128h-25c-0.552,0-1-0.447-1-1s0.448-1,1-1h25c0.553,0,1,0.447,1,1S114.383,157.128,113.83,157.128z"/>
	</g>
	<g>
		<path d="M114.506,105.859h-8.034c-0.276,0-0.5-0.224-0.5-0.5s0.224-0.5,0.5-0.5h8.034c0.276,0,0.5,0.224,0.5,0.5
			S114.782,105.859,114.506,105.859z"/>
	</g>
	<g>
		<path d="M114.442,110.876h-7.971c-0.276,0-0.5-0.224-0.5-0.5s0.224-0.5,0.5-0.5h7.971c0.276,0,0.5,0.224,0.5,0.5
			S114.719,110.876,114.442,110.876z"/>
	</g>
	<g>
		<path d="M114.381,115.798h-7.909c-0.276,0-0.5-0.224-0.5-0.5s0.224-0.5,0.5-0.5h7.909c0.276,0,0.5,0.224,0.5,0.5
			S114.657,115.798,114.381,115.798z"/>
	</g>
	<g>
		<path d="M114.57,121.052h-8.099c-0.276,0-0.5-0.224-0.5-0.5s0.224-0.5,0.5-0.5h8.099c0.276,0,0.5,0.224,0.5,0.5
			S114.847,121.052,114.57,121.052z"/>
	</g>
	<g>
		<path d="M114.253,125.949h-7.781c-0.276,0-0.5-0.224-0.5-0.5s0.224-0.5,0.5-0.5h7.781c0.276,0,0.5,0.224,0.5,0.5
			S114.529,125.949,114.253,125.949z"/>
	</g>
	<g>
		<path d="M94.498,125.949h-8.017c-0.276,0-0.5-0.224-0.5-0.5s0.224-0.5,0.5-0.5h8.017c0.276,0,0.5,0.224,0.5,0.5
			S94.774,125.949,94.498,125.949z"/>
	</g>
	<g>
		<path d="M94.952,121.052h-8.526c-0.276,0-0.5-0.224-0.5-0.5s0.224-0.5,0.5-0.5h8.526c0.276,0,0.5,0.224,0.5,0.5
			S95.228,121.052,94.952,121.052z"/>
	</g>
	<g>
		<path d="M94.498,115.798h-8.4c-0.276,0-0.5-0.224-0.5-0.5s0.224-0.5,0.5-0.5h8.4c0.276,0,0.5,0.224,0.5,0.5
			S94.774,115.798,94.498,115.798z"/>
	</g>
	<g>
		<path d="M94.498,110.876h-8.246c-0.276,0-0.5-0.224-0.5-0.5s0.224-0.5,0.5-0.5h8.246c0.276,0,0.5,0.224,0.5,0.5
			S94.774,110.876,94.498,110.876z"/>
	</g>
	<g>
		<path d="M94.952,105.859h-8.854c-0.276,0-0.5-0.224-0.5-0.5s0.224-0.5,0.5-0.5h8.854c0.276,0,0.5,0.224,0.5,0.5
			S95.228,105.859,94.952,105.859z"/>
	</g>
</g>
</svg>
