<?xml version="1.0" encoding="utf-8"?>
<!-- Generator: Adobe Illustrator 26.0.1, SVG Export Plug-In . SVG Version: 6.00 Build 0)  -->
<svg version="1.1" id="Layer_1" xmlns="http://www.w3.org/2000/svg" xmlns:xlink="http://www.w3.org/1999/xlink" x="0px" y="0px"
	 viewBox="0 0 200 200" enable-background="new 0 0 200 200" xml:space="preserve">
<g>
	<g>
		<path d="M95.156,154.055c-0.033,0-0.067-0.003-0.1-0.01c-0.183-0.038-0.329-0.173-0.38-0.353l-3.552-12.384l-1.948-10.056
			c-0.278-2.146-0.588-4.544-0.663-6.901l0-58.743c0.208-4.008,0.923-7.249,2.251-10.226c1.455-3.263,4.568-8.916,9.063-10.12
			c0.102-0.028,0.212-0.022,0.312,0.018c3.554,1.394,5.984,3.822,8.665,8.662c2.111,3.813,2.87,7.688,3.359,12.334l1.121,53.842
			c0.016,0.784,0,1.576-0.049,2.494c-0.134,2.558-0.476,5.247-1.017,7.993l-1.356,6.889c-0.606,3.083-1.505,6.125-2.67,9.041
			l-2.875,7.204c-0.072,0.179-0.239,0.301-0.432,0.313c-0.189,0.015-0.374-0.086-0.469-0.253c-0.858-1.519-1.312-3.244-1.312-4.99
			v-7.607c0-1.443,0.095-2.902,0.281-4.335l2.242-17.192l-8.688-0.17l0.305,4.503c0.08,1.194,0.227,2.436,0.437,3.69
			c0.98,5.874,2.734,20.182-2.137,26.171C95.448,153.988,95.305,154.055,95.156,154.055z M99.928,46.274
			c-2.941,0.878-5.94,4.333-8.252,9.517c-1.276,2.861-1.964,5.989-2.165,9.844l0,58.701c0.073,2.293,0.379,4.665,0.65,6.758
			l1.933,9.982l3.257,11.348c3.981-6.313,2.057-20.277,1.343-24.561c-0.215-1.287-0.365-2.561-0.448-3.787l-0.341-5.047
			c-0.009-0.141,0.041-0.277,0.137-0.379c0.096-0.103,0.229-0.158,0.372-0.155l9.792,0.191c0.143,0.003,0.276,0.066,0.369,0.174
			s0.136,0.25,0.117,0.391l-2.314,17.746c-0.182,1.391-0.273,2.806-0.273,4.206v7.607c0,1.206,0.24,2.402,0.702,3.512l2.457-6.157
			c1.142-2.858,2.022-5.84,2.618-8.863l1.356-6.889c0.531-2.699,0.867-5.341,0.999-7.853c0.047-0.894,0.062-1.662,0.047-2.421
			l-1.118-53.8c-0.487-4.611-1.201-8.234-3.237-11.912C105.413,49.887,103.158,47.584,99.928,46.274z"/>
	</g>
	<g>
		<path d="M95.156,95.207h-6.144c-0.276,0-0.5-0.224-0.5-0.5v-19.44c0-0.276,0.224-0.5,0.5-0.5h6.144c0.276,0,0.5,0.224,0.5,0.5
			v19.44C95.656,94.983,95.432,95.207,95.156,95.207z M89.512,94.207h5.144v-18.44h-5.144V94.207z"/>
	</g>
	<g>
		<path d="M112.261,95.007h-7.697c-0.276,0-0.5-0.224-0.5-0.5v-19.24c0-0.276,0.224-0.5,0.5-0.5h7.697c0.276,0,0.5,0.224,0.5,0.5
			v19.24C112.761,94.783,112.537,95.007,112.261,95.007z M105.063,94.007h6.697v-18.24h-6.697V94.007z"/>
	</g>
	<g>
		<path d="M94.195,118.15h-5.184c-0.276,0-0.5-0.224-0.5-0.5v-18c0-0.276,0.224-0.5,0.5-0.5h5.184c0.276,0,0.5,0.224,0.5,0.5v18
			C94.695,117.927,94.472,118.15,94.195,118.15z M89.512,117.15h4.184v-17h-4.184V117.15z"/>
	</g>
	<g>
		<path d="M112.788,118.15h-6.496c-0.276,0-0.5-0.224-0.5-0.5v-18c0-0.276,0.224-0.5,0.5-0.5h5.969c0.271,0,0.492,0.215,0.5,0.485
			l0.527,18c0.004,0.135-0.047,0.266-0.142,0.363C113.053,118.096,112.923,118.15,112.788,118.15z M106.792,117.15h5.481l-0.498-17
			h-4.983V117.15z"/>
	</g>
	<g>
		<path d="M112.261,58.438c-0.003,0-0.005,0-0.008,0l-24.401-0.384c-0.276-0.004-0.497-0.232-0.492-0.508s0.218-0.483,0.508-0.492
			l24.401,0.384c0.276,0.004,0.496,0.232,0.492,0.508C112.757,58.22,112.533,58.438,112.261,58.438z"/>
	</g>
	<g>
		<path fill="none" stroke="#000000" stroke-linecap="round" stroke-linejoin="round" stroke-miterlimit="10" d="M86.132,70.707"/>
	</g>
	<g>
		<path d="M89.023,72.215l-3.374-0.338c-0.275-0.028-0.475-0.273-0.447-0.548c0.028-0.274,0.275-0.464,0.548-0.447l3.312,0.336
			l6.89-0.159v-7.053l-6.44-0.043v4.921c0,0.144-0.062,0.281-0.171,0.376c-0.108,0.095-0.254,0.14-0.395,0.12l-2.88-0.384
			c-0.274-0.037-0.466-0.288-0.43-0.562c0.037-0.274,0.286-0.465,0.562-0.43l2.314,0.309v-4.431l-2.128-0.361
			c-0.244-0.042-0.417-0.253-0.417-0.493c0-0.028,0.002-0.056,0.007-0.084c0.046-0.272,0.304-0.45,0.577-0.41l2.544,0.432
			l6.856,0.04v-5.32c0-0.276,0.224-0.5,0.5-0.5s0.5,0.224,0.5,0.5v13.861c0,0.272-0.217,0.494-0.489,0.5L89.023,72.215z"/>
	</g>
	<g>
		<path d="M111.341,71.976l-7.503-0.166c-0.271-0.006-0.488-0.228-0.488-0.5V57.449c0-0.276,0.224-0.5,0.5-0.5s0.5,0.224,0.5,0.5
			v5.317l6.604-0.086c0.074-0.062,0.167-0.104,0.271-0.115l2.558-0.271c0.263-0.032,0.511,0.161,0.548,0.429
			s-0.146,0.516-0.411,0.562l-2.092,0.355l0.361,4.384l1.916-0.256c0.264-0.035,0.525,0.155,0.562,0.43
			c0.037,0.273-0.155,0.525-0.429,0.562l-2.438,0.325c-0.139,0.019-0.273-0.02-0.38-0.106s-0.174-0.212-0.185-0.349l-0.409-4.953
			l-6.476,0.089v7.056l6.952,0.157l3.249-0.333c0.266-0.026,0.521,0.171,0.548,0.447c0.028,0.274-0.172,0.52-0.446,0.548
			L111.341,71.976z"/>
	</g>
	<g>
		<path fill="none" stroke="#000000" stroke-linecap="round" stroke-linejoin="round" stroke-miterlimit="10" d="M106.292,99.651"/>
	</g>
</g>
</svg>
