<svg width="11" height="40" viewBox="0 0 11 40" fill="none" xmlns="http://www.w3.org/2000/svg">
<path d="M5.41978 38.3221C3.69028 38.3221 2.50961 37.5665 1.5916 35.8721C0.911444 34.6166 0.664656 33.3298 0.503219 31.7839C0.476092 31.5255 0.460875 31.2579 0.456574 30.9668L0.0986328 7.44421C0.107234 6.71211 0.205154 6.00252 0.389087 5.3303C1.23465 2.24447 2.62771 0.985718 5.19714 0.985718C7.50788 0.985718 8.82618 1.96989 9.60458 4.27633C9.92283 5.21849 10.0942 6.26353 10.115 7.38301L9.97146 32.6324C9.97179 35.3719 8.5473 38.3221 5.41978 38.3221ZM5.19747 1.3162C2.80701 1.3162 1.50658 2.50449 0.708655 5.41764C0.531669 6.06273 0.438048 6.7442 0.429778 7.44354L0.787719 30.9615C0.79202 31.243 0.806574 31.5007 0.832377 31.7495C0.989845 33.2563 1.22869 34.5071 1.88271 35.7143C2.73588 37.289 3.82658 37.9913 5.42011 37.9913C8.33624 37.9913 9.64163 35.2991 9.64163 32.6311L9.78521 7.38499C9.76503 6.30356 9.59929 5.2916 9.29229 4.38186C8.56616 2.23322 7.34181 1.3162 5.19747 1.3162Z" fill="black"/>
<path d="M3.38718 10.2479H0.304323C0.213018 10.2479 0.138916 10.1738 0.138916 10.0825V9.12976C0.138916 9.03846 0.213018 8.96436 0.304323 8.96436H3.38718C3.47849 8.96436 3.55259 9.03846 3.55259 9.12976V10.0825C3.55259 10.1738 3.47849 10.2479 3.38718 10.2479ZM0.46973 9.9171H3.22177V9.29517H0.46973V9.9171Z" fill="black"/>
<path d="M3.38722 7.07198H0.287159C0.239522 7.07198 0.1942 7.05147 0.162773 7.01541C0.131346 6.97968 0.117119 6.93204 0.123405 6.8844L0.250769 5.93166C0.261686 5.84962 0.331819 5.78809 0.414854 5.78809H3.38755C3.47886 5.78809 3.55296 5.86219 3.55296 5.95349V6.90624C3.55263 6.99787 3.47853 7.07198 3.38722 7.07198ZM0.476054 6.74116H3.22148V6.11923H0.559088L0.476054 6.74116Z" fill="black"/>
<path d="M3.38724 13.4237H0.352681C0.307028 13.4237 0.263361 13.4048 0.232265 13.3718C0.200838 13.3387 0.184627 13.294 0.187604 13.2484L0.244836 12.2956C0.25013 12.2083 0.322247 12.1401 0.409913 12.1401H3.38724C3.47855 12.1401 3.55265 12.2142 3.55265 12.3055V13.2583C3.55265 13.3496 3.47855 13.4237 3.38724 13.4237ZM0.528343 13.0929H3.22183V12.471H0.565724L0.528343 13.0929Z" fill="black"/>
<path d="M9.91387 8.54086H6.84888C6.75757 8.54086 6.68347 8.46676 6.68347 8.37545V7.42271C6.68347 7.33207 6.75658 7.25829 6.8469 7.2573L9.94795 7.22058C9.99558 7.22257 10.0369 7.23811 10.068 7.27053C10.0998 7.30295 10.1167 7.34662 10.1153 7.39194L10.0793 8.38141C10.076 8.4704 10.0025 8.54086 9.91387 8.54086ZM7.01429 8.21005H9.75409L9.77824 7.55338L7.01429 7.58613V8.21005Z" fill="black"/>
<path d="M9.91387 11.7563H6.84888C6.75757 11.7563 6.68347 11.6822 6.68347 11.5909V10.6382C6.68347 10.5469 6.75757 10.4728 6.84888 10.4728H9.91387C10.0052 10.4728 10.0793 10.5469 10.0793 10.6382V11.5909C10.0793 11.6822 10.0052 11.7563 9.91387 11.7563ZM7.01429 11.4255H9.74847V10.8036H7.01429V11.4255Z" fill="black"/>
<path d="M9.89502 14.9719H6.84888C6.75757 14.9719 6.68347 14.8978 6.68347 14.8065V13.8537C6.68347 13.7647 6.75394 13.6916 6.84259 13.6883L9.90759 13.5772C9.96151 13.5768 9.99724 13.5927 10.0297 13.6245C10.0621 13.6562 10.0796 13.7002 10.0789 13.7455L10.0601 14.8094C10.0588 14.8994 9.985 14.9719 9.89502 14.9719ZM7.01429 14.6411H9.73259L9.74549 13.9139L7.01429 14.0132V14.6411Z" fill="black"/>
<path d="M9.88939 18.1874H6.84888C6.75757 18.1874 6.68347 18.1133 6.68347 18.022V17.0692C6.68347 16.9779 6.75757 16.9038 6.84888 16.9038H9.89502C9.93902 16.9038 9.98136 16.9213 10.0121 16.9524C10.0429 16.9835 10.0604 17.0259 10.0604 17.0699L10.0548 18.0226C10.0541 18.1139 9.9807 18.1874 9.88939 18.1874ZM7.01429 17.8566H9.72498L9.72862 17.2346H7.01429V17.8566Z" fill="black"/>
<path d="M3.38729 16.5995H0.458254C0.366949 16.5995 0.292847 16.5254 0.292847 16.4341V15.4813C0.292847 15.39 0.366949 15.3159 0.458254 15.3159H3.38729C3.47859 15.3159 3.55269 15.39 3.55269 15.4813V16.4341C3.55269 16.5254 3.47859 16.5995 3.38729 16.5995ZM0.623661 16.2687H3.22188V15.6467H0.623661V16.2687Z" fill="black"/>
<path d="M3.38718 36.9406C2.09535 36.9406 1.56605 36.0153 1.21869 35.1102C0.887548 34.2468 0.504796 32.3529 0.474361 31.4263L0.292743 20.1994C0.292081 20.1551 0.309283 20.1121 0.340379 20.0807C0.371476 20.0489 0.414152 20.0314 0.45815 20.0314H3.38718C3.47849 20.0314 3.55259 20.1055 3.55259 20.1968V36.7752C3.55259 36.8668 3.47849 36.9406 3.38718 36.9406ZM0.626205 20.3625L0.804845 31.4183C0.833957 32.2976 1.21208 34.1694 1.52767 34.9921C1.94053 36.0673 2.43874 36.5469 3.22177 36.6042V20.3625H0.626205Z" fill="black"/>
<path d="M7.476 36.9565C7.38007 36.9565 7.28149 36.9509 7.17993 36.9396C7.0959 36.9304 7.03271 36.8596 7.03271 36.7752V20.1968C7.03271 20.1055 7.10682 20.0314 7.19812 20.0314H9.87739C9.92172 20.0314 9.96406 20.0492 9.99483 20.0807C10.0263 20.1121 10.0431 20.1548 10.0428 20.1988L9.88434 32.5434C9.85522 33.4515 9.82214 34.481 9.50456 35.31C9.08046 36.4153 8.41519 36.9565 7.476 36.9565ZM7.36353 36.6227C8.21902 36.6591 8.80621 36.2065 9.19558 35.1923C9.49331 34.4148 9.5254 33.4155 9.55385 32.5332L9.55815 32.3999L9.71 20.3625H7.36353V36.6227Z" fill="black"/>
<path d="M8.24626 36.9407H2.72034C2.62903 36.9407 2.55493 36.8666 2.55493 36.7753C2.55493 36.684 2.62903 36.6099 2.72034 36.6099H8.24626C8.33757 36.6099 8.41167 36.684 8.41167 36.7753C8.41167 36.8666 8.33757 36.9407 8.24626 36.9407Z" fill="black"/>
<path d="M9.21979 3.89624H1.2594C1.1681 3.89624 1.09399 3.82214 1.09399 3.73084C1.09399 3.63953 1.1681 3.56543 1.2594 3.56543H9.21979C9.31109 3.56543 9.38519 3.63953 9.38519 3.73084C9.38519 3.82214 9.31109 3.89624 9.21979 3.89624Z" fill="black"/>
<path d="M9.6323 39.0142H1.36194C1.17933 39.0142 1.03113 38.8663 1.03113 38.6834C1.03113 38.5004 1.17933 38.3525 1.36194 38.3525H9.6323C9.81524 38.3525 9.96311 38.5004 9.96311 38.6834C9.96311 38.8663 9.81524 39.0142 9.6323 39.0142Z" fill="black"/>
<path d="M9.85588 22.0536H7.19812C7.10682 22.0536 7.03271 21.9795 7.03271 21.8882C7.03271 21.7969 7.10682 21.7228 7.19812 21.7228H9.85588C9.94719 21.7228 10.0213 21.7969 10.0213 21.8882C10.0213 21.9795 9.94719 22.0536 9.85588 22.0536Z" fill="black"/>
<path d="M9.8348 23.7134H7.19788C7.10657 23.7134 7.03247 23.6393 7.03247 23.548C7.03247 23.4567 7.10657 23.3826 7.19788 23.3826H9.8348C9.9261 23.3826 10.0002 23.4567 10.0002 23.548C10.0002 23.6393 9.92643 23.7134 9.8348 23.7134Z" fill="black"/>
<path d="M9.81453 25.3417H7.19812C7.10682 25.3417 7.03271 25.2676 7.03271 25.1763C7.03271 25.085 7.10682 25.0109 7.19812 25.0109H9.81453C9.90584 25.0109 9.97994 25.085 9.97994 25.1763C9.97994 25.2676 9.90584 25.3417 9.81453 25.3417Z" fill="black"/>
<path d="M9.87714 27.0797H7.19788C7.10657 27.0797 7.03247 27.0056 7.03247 26.9143C7.03247 26.823 7.10657 26.7489 7.19788 26.7489H9.87714C9.96845 26.7489 10.0426 26.823 10.0426 26.9143C10.0426 27.0056 9.96878 27.0797 9.87714 27.0797Z" fill="black"/>
<path d="M9.77219 28.6997H7.19812C7.10682 28.6997 7.03271 28.6256 7.03271 28.5343C7.03271 28.443 7.10682 28.3689 7.19812 28.3689H9.77219C9.86349 28.3689 9.93759 28.443 9.93759 28.5343C9.93759 28.6256 9.86349 28.6997 9.77219 28.6997Z" fill="black"/>
<path d="M3.23698 28.6997H0.584841C0.493536 28.6997 0.419434 28.6256 0.419434 28.5343C0.419434 28.443 0.493536 28.3689 0.584841 28.3689H3.23698C3.32828 28.3689 3.40239 28.443 3.40239 28.5343C3.40239 28.6256 3.32828 28.6997 3.23698 28.6997Z" fill="black"/>
<path d="M3.38718 27.0797H0.566652C0.475348 27.0797 0.401245 27.0056 0.401245 26.9143C0.401245 26.823 0.475348 26.7489 0.566652 26.7489H3.38718C3.47848 26.7489 3.55258 26.823 3.55258 26.9143C3.55258 27.0056 3.47848 27.0797 3.38718 27.0797Z" fill="black"/>
<path d="M3.23709 25.3417H0.458254C0.366949 25.3417 0.292847 25.2676 0.292847 25.1763C0.292847 25.085 0.366949 25.0109 0.458254 25.0109H3.23709C3.3284 25.0109 3.4025 25.085 3.4025 25.1763C3.4025 25.2676 3.3284 25.3417 3.23709 25.3417Z" fill="black"/>
<path d="M3.23705 23.7134H0.509157C0.417852 23.7134 0.34375 23.6393 0.34375 23.548C0.34375 23.4567 0.417852 23.3826 0.509157 23.3826H3.23705C3.32836 23.3826 3.40246 23.4567 3.40246 23.548C3.40246 23.6393 3.32836 23.7134 3.23705 23.7134Z" fill="black"/>
<path d="M3.38729 22.0536H0.458254C0.366949 22.0536 0.292847 21.9795 0.292847 21.8882C0.292847 21.7969 0.366949 21.7228 0.458254 21.7228H3.38729C3.47859 21.7228 3.55269 21.7969 3.55269 21.8882C3.55269 21.9795 3.47859 22.0536 3.38729 22.0536Z" fill="black"/>
</svg>
