<svg width="6" height="38" viewBox="0 0 6 38" fill="none" xmlns="http://www.w3.org/2000/svg">
<path d="M3.58127 37.5C3.57952 37.5 3.57749 37.5 3.57575 37.5L0.817643 37.3972C0.749083 37.3945 0.691562 37.3443 0.679942 37.2769C0.668321 37.2095 0.705216 37.1427 0.768838 37.1171L1.2781 36.9123C1.5137 36.8176 1.68278 36.6122 1.73043 36.3627L1.82368 35.8758C1.86232 35.6727 1.84808 35.4618 1.78214 35.2657L1.48524 34.3852C1.46229 34.3163 1.48146 34.2402 1.53346 34.1911C1.67523 34.0577 1.7525 33.8704 1.7464 33.6769C1.7403 33.4831 1.65083 33.3013 1.50121 33.1778C1.46781 33.1502 1.44834 33.1092 1.44834 33.0659L1.44282 28.9596C1.44253 28.5683 1.40651 28.1749 1.33679 27.7903L1.19356 27.0024L1.16451 14.9189C1.14476 14.2752 1.18252 13.6215 1.27694 12.9807L2.10576 7.34535L1.46025 6.18243C1.44805 6.16036 1.44166 6.13566 1.44195 6.11039L1.44369 5.93289C1.4466 5.5988 1.30309 5.28214 1.04976 5.06426C1.01781 5.03695 0.999502 4.99686 0.999212 4.95474L0.990787 2.80555C0.989625 2.51184 0.943434 2.22075 0.853666 1.9407L0.452183 0.689471C0.429813 0.619749 0.462641 0.544506 0.528877 0.513421C0.595695 0.482918 0.674421 0.505868 0.713059 0.567457L1.28275 1.46717C1.44166 1.71817 1.55089 1.99357 1.60725 2.28553L1.94279 4.02743C2.02646 4.46116 2.15864 4.8856 2.33585 5.28912L3.28524 7.45022C3.37907 7.66404 3.45664 7.88599 3.51619 8.11026L4.94405 13.4925C5.10761 14.111 5.19098 14.7487 5.19098 15.3878L4.91761 27.8205C4.90454 28.4108 4.84469 29.0037 4.73953 29.5836L3.54873 36.1491C3.47901 36.5343 3.53711 36.9393 3.71199 37.2897C3.73494 37.3356 3.73175 37.3902 3.70415 37.4332C3.67655 37.475 3.63065 37.5 3.58127 37.5ZM1.49395 37.1313L3.35757 37.2008C3.22975 36.8498 3.19547 36.4658 3.26229 36.0974L4.45309 29.5316C4.55593 28.9668 4.61432 28.3887 4.62681 27.8141L4.90018 15.3843C4.90018 14.7734 4.82058 14.161 4.66312 13.5669L3.23527 8.18463C3.17978 7.97488 3.10715 7.76688 3.01913 7.56701L2.07003 5.4059C1.88411 4.98234 1.74524 4.53728 1.6578 4.08234L1.32226 2.34044C1.27781 2.11007 1.19589 1.8916 1.07852 1.68941L1.13052 1.8518C1.2293 2.16032 1.28043 2.48047 1.28159 2.80409L1.28972 4.88908C1.57675 5.16071 1.73798 5.53808 1.73449 5.9355L1.73333 6.07466L2.38407 7.24715C2.39947 7.27504 2.40557 7.30729 2.40092 7.33866L1.56512 13.0225C1.47332 13.6465 1.43672 14.2827 1.45589 14.914L1.48291 26.9763L1.62381 27.7383C1.69702 28.1403 1.7342 28.5511 1.73478 28.9593L1.74001 33.0006C1.92216 33.1749 2.02965 33.414 2.03779 33.6676C2.04592 33.9215 1.95354 34.1679 1.78243 34.3532L2.0587 35.1727C2.14063 35.4162 2.15835 35.6779 2.11041 35.9298L2.01716 36.4167C1.95731 36.7252 1.76529 36.9849 1.49395 37.1313Z" fill="black"/>
<path d="M2.81771 32.089H1.56444C1.48426 32.089 1.41919 32.0239 1.41919 31.9437C1.41919 31.8635 1.48426 31.7985 1.56444 31.7985H2.67245V28.5526H1.56444C1.48426 28.5526 1.41919 28.4875 1.41919 28.4073C1.41919 28.3272 1.48426 28.2621 1.56444 28.2621H2.81771C2.89789 28.2621 2.96296 28.3272 2.96296 28.4073V31.9437C2.96296 32.0239 2.89789 32.089 2.81771 32.089Z" fill="black"/>
<path d="M2.6049 26.4689H1.33044C1.25025 26.4689 1.18518 26.4039 1.18518 26.3237C1.18518 26.2435 1.25025 26.1784 1.33044 26.1784H2.45965V24.7959H1.33044C1.25025 24.7959 1.18518 24.7308 1.18518 24.6506C1.18518 24.5704 1.25025 24.5054 1.33044 24.5054H2.6049C2.68508 24.5054 2.75016 24.5704 2.75016 24.6506V26.3237C2.75016 26.4041 2.68537 26.4689 2.6049 26.4689Z" fill="black"/>
<path d="M4.84147 26.4689H3.56701C3.48683 26.4689 3.42175 26.4039 3.42175 26.3237V24.6506C3.42175 24.5704 3.48683 24.5054 3.56701 24.5054H4.84147C4.92165 24.5054 4.98673 24.5704 4.98673 24.6506C4.98673 24.7308 4.92165 24.7959 4.84147 24.7959H3.71226V26.1784H4.84147C4.92165 26.1784 4.98673 26.2435 4.98673 26.3237C4.98673 26.4039 4.92194 26.4689 4.84147 26.4689Z" fill="black"/>
<path d="M2.73765 24.0706H1.32287C1.24269 24.0706 1.17761 24.0055 1.17761 23.9253C1.17761 23.8451 1.24269 23.78 1.32287 23.78H2.5924V21.8534H1.32287C1.24269 21.8534 1.17761 21.7883 1.17761 21.7081C1.17761 21.6279 1.24269 21.5629 1.32287 21.5629H2.73765C2.81783 21.5629 2.88291 21.6279 2.88291 21.7081V23.9253C2.88291 24.0058 2.81783 24.0706 2.73765 24.0706Z" fill="black"/>
<path d="M4.85739 24.0705H3.45568C3.3755 24.0705 3.31042 24.0055 3.31042 23.9253V21.6149C3.31042 21.5347 3.3755 21.4696 3.45568 21.4696H4.90823C4.98841 21.4696 5.05349 21.5347 5.05349 21.6149C5.05349 21.695 4.98841 21.7601 4.90823 21.7601H3.60093V23.78H4.85739C4.93757 23.78 5.00265 23.8451 5.00265 23.9253C5.00265 24.0055 4.93757 24.0705 4.85739 24.0705Z" fill="black"/>
<path d="M3.87406 21.0728H2.0299C1.94972 21.0728 1.88464 21.0077 1.88464 20.9275V15.0987C1.88464 15.0186 1.94972 14.9535 2.0299 14.9535H3.87406C3.95424 14.9535 4.01931 15.0186 4.01931 15.0987V20.9275C4.01931 21.0077 3.95424 21.0728 3.87406 21.0728ZM2.17515 20.7823H3.7288V15.244H2.17515V20.7823Z" fill="black"/>
<path d="M1.40382 13.2656C1.32451 13.2656 1.25972 13.202 1.25856 13.1224C1.2574 13.0422 1.3216 12.9762 1.40178 12.9751L4.6799 12.9289C4.75746 12.9248 4.82603 12.9919 4.82719 13.0721C4.82835 13.1523 4.76415 13.2182 4.68396 13.2194L1.40585 13.2656C1.40527 13.2656 1.40469 13.2656 1.40382 13.2656Z" fill="black"/>
<path d="M2.95197 14.2258H1.3164C1.23622 14.2258 1.17114 14.1607 1.17114 14.0805C1.17114 14.0004 1.23622 13.9353 1.3164 13.9353H2.80671V13.0742C2.80671 12.994 2.87179 12.929 2.95197 12.929C3.03215 12.929 3.09722 12.994 3.09722 13.0742V14.0805C3.09722 14.1607 3.03244 14.2258 2.95197 14.2258Z" fill="black"/>
<path d="M4.92623 14.2258H3.34411C3.26393 14.2258 3.19885 14.1607 3.19885 14.0805V13.0742C3.19885 12.994 3.26393 12.929 3.34411 12.929C3.42429 12.929 3.48936 12.994 3.48936 13.0742V13.9353H4.92623C5.00641 13.9353 5.07148 14.0004 5.07148 14.0805C5.07148 14.1607 5.0067 14.2258 4.92623 14.2258Z" fill="black"/>
<path d="M3.89175 10.2394H1.84801C1.76783 10.2394 1.70276 10.1743 1.70276 10.0941C1.70276 10.0139 1.76783 9.94885 1.84801 9.94885H3.89175C3.97193 9.94885 4.03701 10.0139 4.03701 10.0941C4.03701 10.1743 3.97193 10.2394 3.89175 10.2394Z" fill="black"/>
<path d="M4.11144 11.1268H1.71764C1.63746 11.1268 1.57239 11.0617 1.57239 10.9816C1.57239 10.9014 1.63746 10.8363 1.71764 10.8363H4.11144C4.19163 10.8363 4.2567 10.9014 4.2567 10.9816C4.2567 11.0617 4.19163 11.1268 4.11144 11.1268Z" fill="black"/>
<path d="M4.31329 11.8996H1.604C1.52381 11.8996 1.45874 11.8346 1.45874 11.7544C1.45874 11.6742 1.52381 11.6091 1.604 11.6091H4.31329C4.39347 11.6091 4.45855 11.6742 4.45855 11.7544C4.45855 11.8346 4.39347 11.8996 4.31329 11.8996Z" fill="black"/>
</svg>
