<svg width="12" height="38" viewBox="0 0 12 38" fill="none" xmlns="http://www.w3.org/2000/svg">
<path d="M8.19382 38H3.06977C3.0042 38 2.94913 37.9506 2.94222 37.885L1.89671 27.7237C1.80681 26.8514 1.76147 25.9636 1.76147 25.0854V10.5039C1.76147 8.15159 2.34698 5.81137 3.45472 3.73598L5.51987 0.0603177C5.56546 -0.0201059 5.69762 -0.0201059 5.74321 0.0603177L7.80707 3.73342C8.9161 5.81111 9.5016 8.15134 9.5016 10.5039V25.0856C9.5016 25.9623 9.45601 26.8501 9.36637 27.724L8.32086 37.8853C8.3142 37.9506 8.25939 38 8.19382 38ZM5.04629 37.7439H8.07805L9.11178 27.6976C9.20065 26.8321 9.24548 25.9531 9.24548 25.0854V10.5039C9.24548 8.19334 8.67047 5.89487 7.58245 3.85662L5.63154 0.384573L3.67909 3.85918C2.59235 5.89512 2.01734 8.1936 2.01734 10.5039V25.0856C2.01734 25.9552 2.06242 26.8339 2.1513 27.6978L3.18502 37.7441H5.04629V37.7439Z" fill="black"/>
<path d="M7.889 21.3354C7.81831 21.3354 7.76094 21.278 7.76094 21.2073V11.4815H3.59121V21.2071C3.59121 21.2778 3.53384 21.3351 3.46315 21.3351C3.39246 21.3351 3.33508 21.2778 3.33508 21.2071V11.3534C3.33508 11.2827 3.39246 11.2253 3.46315 11.2253H7.889C7.95969 11.2253 8.01707 11.2827 8.01707 11.3534V21.2071C8.01707 21.278 7.95995 21.3354 7.889 21.3354Z" fill="black"/>
<path d="M8.54727 34.5646H2.7163C2.65073 34.5646 2.59567 34.5152 2.58875 34.4496L2.38821 32.5007C2.38462 32.4646 2.3964 32.429 2.42048 32.4019C2.44455 32.3747 2.47913 32.3596 2.5155 32.3596H8.74756C8.78393 32.3596 8.81825 32.375 8.84258 32.4019C8.86691 32.4288 8.8787 32.4646 8.87485 32.5007L8.67431 34.4496C8.66765 34.5152 8.61258 34.5646 8.54727 34.5646ZM2.83182 34.3085H8.4315L8.60592 32.6157H2.65765L2.83182 34.3085Z" fill="black"/>
<path d="M6.71904 29.1852H4.99788C4.92718 29.1852 4.86981 29.1278 4.86981 29.0571V26.4016C4.86981 26.3309 4.92718 26.2736 4.99788 26.2736H6.71904C6.78973 26.2736 6.8471 26.3309 6.8471 26.4016V29.0571C6.8471 29.1278 6.78973 29.1852 6.71904 29.1852ZM5.12594 28.9291H6.59098V26.5297H5.12594V28.9291Z" fill="black"/>
<path d="M8.92043 7.06792C8.86946 7.06792 8.82105 7.03718 8.80133 6.98673C7.85264 4.57888 6.82711 3.35793 5.75343 3.35793C3.91316 3.35793 2.47655 6.95061 2.46221 6.98673C2.43608 7.05255 2.36155 7.08482 2.29624 7.05895C2.23041 7.03283 2.19814 6.95855 2.22401 6.89298C2.28497 6.73828 3.74053 3.10181 5.75343 3.10181C6.94288 3.10181 8.04832 4.37731 9.03953 6.89298C9.06565 6.95881 9.03338 7.03308 8.96755 7.05895C8.95193 7.0651 8.93605 7.06792 8.92043 7.06792Z" fill="black"/>
<path d="M3.32177 8.71764H2.01912C1.94842 8.71764 1.89105 8.66026 1.89105 8.58957C1.89105 8.51888 1.94842 8.46151 2.01912 8.46151H3.19371V7.81325H2.17125C2.10056 7.81325 2.04319 7.75588 2.04319 7.68519C2.04319 7.6145 2.10056 7.55713 2.17125 7.55713H3.32177C3.39246 7.55713 3.44984 7.6145 3.44984 7.68519V8.58957C3.44984 8.66026 3.39246 8.71764 3.32177 8.71764Z" fill="black"/>
<path d="M3.22959 10.3629H1.88954C1.81885 10.3629 1.76147 10.3056 1.76147 10.2349C1.76147 10.1642 1.81885 10.1068 1.88954 10.1068H3.10153V9.5126H2.01914C1.94845 9.5126 1.89107 9.45522 1.89107 9.38453C1.89107 9.31384 1.94845 9.25647 2.01914 9.25647H3.22959C3.30028 9.25647 3.35765 9.31384 3.35765 9.38453V10.2349C3.35765 10.3056 3.30028 10.3629 3.22959 10.3629Z" fill="black"/>
<path d="M9.37377 10.363H7.59394C7.52325 10.363 7.46588 10.3056 7.46588 10.235V9.38462C7.46588 9.31393 7.52325 9.25655 7.59394 9.25655H9.21958L9.13506 8.71766H7.59394C7.52325 8.71766 7.46588 8.66029 7.46588 8.5896V7.39503C7.46588 7.32434 7.52325 7.26697 7.59394 7.26697H9.0303C9.10099 7.26697 9.15836 7.32434 9.15836 7.39503C9.15836 7.46572 9.10099 7.52309 9.0303 7.52309H7.72201V8.46154H9.24442C9.30743 8.46154 9.36121 8.50739 9.37095 8.56962L9.49286 9.34645C9.4985 9.38359 9.48441 9.43379 9.46008 9.46222C9.43549 9.49065 9.38811 9.51268 9.35046 9.51268H7.72201V10.1069H9.37377C9.44446 10.1069 9.50183 10.1643 9.50183 10.235C9.50183 10.3056 9.44446 10.363 9.37377 10.363Z" fill="black"/>
<path d="M3.32794 23.6956H1.9633C1.89261 23.6956 1.83524 23.6382 1.83524 23.5675C1.83524 23.4968 1.89261 23.4395 1.9633 23.4395H3.19988V22.952H1.88954C1.81885 22.952 1.76147 22.8947 1.76147 22.824C1.76147 22.7533 1.81885 22.6959 1.88954 22.6959H3.32794C3.39863 22.6959 3.456 22.7533 3.456 22.824V23.5675C3.456 23.6385 3.39863 23.6956 3.32794 23.6956Z" fill="black"/>
<path d="M3.46317 25.4352H1.88954C1.81885 25.4352 1.76147 25.3779 1.76147 25.3072C1.76147 25.2365 1.81885 25.1791 1.88954 25.1791H3.33511V24.7222H1.88954C1.81885 24.7222 1.76147 24.6648 1.76147 24.5941C1.76147 24.5234 1.81885 24.4661 1.88954 24.4661H3.46317C3.53387 24.4661 3.59124 24.5234 3.59124 24.5941V25.3072C3.59124 25.3781 3.53387 25.4352 3.46317 25.4352Z" fill="black"/>
<path d="M3.46317 27.6915H1.88954C1.81885 27.6915 1.76147 27.6341 1.76147 27.5635C1.76147 27.4928 1.81885 27.4354 1.88954 27.4354H3.33511V26.9539H1.88954C1.81885 26.9539 1.76147 26.8965 1.76147 26.8258C1.76147 26.7551 1.81885 26.6978 1.88954 26.6978H3.46317C3.53387 26.6978 3.59124 26.7551 3.59124 26.8258V27.5635C3.59124 27.6341 3.53387 27.6915 3.46317 27.6915Z" fill="black"/>
<path d="M3.46313 29.7382H2.21964C2.14895 29.7382 2.09158 29.6808 2.09158 29.6101C2.09158 29.5394 2.14895 29.482 2.21964 29.482H3.33507V29.0733H2.15126C2.08057 29.0733 2.02319 29.0159 2.02319 28.9452C2.02319 28.8745 2.08057 28.8171 2.15126 28.8171H3.46313C3.53382 28.8171 3.5912 28.8745 3.5912 28.9452V29.6101C3.5912 29.6811 3.53382 29.7382 3.46313 29.7382Z" fill="black"/>
<path d="M10.574 27.0888C10.5732 27.0888 10.5724 27.0888 10.5714 27.0888C10.5148 27.0877 10.4659 27.0498 10.4505 26.9953C10.4403 26.9587 10.2085 26.1245 10.1242 25.3379L9.35302 25.2116C9.28336 25.2004 9.23597 25.1343 9.2475 25.0646C9.25877 24.9949 9.32613 24.9465 9.39452 24.9591L10.2628 25.1012C10.3204 25.1105 10.3642 25.1578 10.3696 25.216C10.4085 25.6463 10.5017 26.1124 10.5786 26.4492C11.0076 24.56 11.0855 20.9709 10.8311 20.5699C10.827 20.5722 10.8232 20.5747 10.8204 20.5768C10.6091 20.7304 10.4085 21.5997 10.3314 22.1117C10.3222 22.1745 10.2682 22.2208 10.2049 22.2208C10.2036 22.2208 10.2021 22.2208 10.2005 22.2208L9.06463 22.1834H7.75838V22.6709H9.31742C9.38811 22.6709 9.44549 22.7282 9.44549 22.7989C9.44549 22.8696 9.38811 22.927 9.31742 22.927H7.63032C7.55963 22.927 7.50226 22.8696 7.50226 22.7989V22.0554C7.50226 21.9847 7.55963 21.9273 7.63032 21.9273H9.06872L10.0958 21.9609C10.1596 21.579 10.3504 20.6014 10.6695 20.3693C10.7566 20.3063 10.837 20.3032 10.8893 20.3122C10.95 20.3222 11.0012 20.3606 11.0412 20.4259C11.3992 21.0132 11.2389 25.3059 10.6951 26.9994C10.6787 27.0532 10.6293 27.0888 10.574 27.0888Z" fill="black"/>
<path d="M9.36687 24.6668H7.49562C7.42493 24.6668 7.36755 24.6094 7.36755 24.5388V23.8257C7.36755 23.755 7.42493 23.6976 7.49562 23.6976H9.36687C9.43756 23.6976 9.49494 23.755 9.49494 23.8257C9.49494 23.8964 9.43756 23.9538 9.36687 23.9538H7.62368V24.4107H9.36687C9.43756 24.4107 9.49494 24.4681 9.49494 24.5388C9.49494 24.6094 9.43756 24.6668 9.36687 24.6668Z" fill="black"/>
<path d="M9.31667 26.9231H7.49562C7.42493 26.9231 7.36755 26.8657 7.36755 26.795V26.0574C7.36755 25.9867 7.42493 25.9293 7.49562 25.9293H9.35535C9.42604 25.9293 9.48341 25.9867 9.48341 26.0574C9.48341 26.1281 9.42604 26.1854 9.35535 26.1854H7.62368V26.667H9.31667C9.38736 26.667 9.44474 26.7243 9.44474 26.795C9.44474 26.8657 9.38762 26.9231 9.31667 26.9231Z" fill="black"/>
<path d="M9.04748 28.9697H7.49562C7.42493 28.9697 7.36755 28.9124 7.36755 28.8417V28.1768C7.36755 28.1061 7.42493 28.0487 7.49562 28.0487H9.14558C9.21627 28.0487 9.27364 28.1061 9.27364 28.1768C9.27364 28.2475 9.21627 28.3048 9.14558 28.3048H7.62368V28.7136H9.04748C9.11817 28.7136 9.17555 28.771 9.17555 28.8417C9.17555 28.9124 9.11817 28.9697 9.04748 28.9697Z" fill="black"/>
<path d="M10.2418 25.3556C10.1765 25.3556 10.1204 25.3057 10.1145 25.2391C10.106 25.1441 9.90497 22.9025 10.0797 22.0667C10.094 21.9973 10.1608 21.9522 10.2313 21.9676C10.3007 21.9822 10.3447 22.0498 10.3304 22.1192C10.1637 22.9176 10.3678 25.193 10.3696 25.2161C10.376 25.2862 10.324 25.3487 10.2536 25.3551C10.2497 25.3554 10.2456 25.3556 10.2418 25.3556Z" fill="black"/>
<path d="M0.821503 26.0642C0.766799 26.0642 0.718146 26.0284 0.701508 25.9751C0.166316 24.2816 0.00850709 19.9889 0.360932 19.4016C0.400258 19.3363 0.450423 19.2979 0.510421 19.2879C0.561848 19.2787 0.64151 19.282 0.726717 19.345C1.04082 19.577 1.22889 20.5547 1.2914 20.9366L1.8697 20.9174C1.93878 20.9179 1.99751 20.9704 1.99978 21.0411C2.00205 21.1118 1.9476 21.1709 1.87802 21.1735L1.18855 21.1965C1.12124 21.1945 1.06931 21.1515 1.05973 21.0874C0.984102 20.5754 0.786715 19.7059 0.578487 19.5525C0.575714 19.5502 0.572185 19.5476 0.568151 19.5455C0.317824 19.9466 0.394712 23.5357 0.816966 25.4252C0.892594 25.0884 0.984356 24.6217 1.02267 24.1917C1.02797 24.133 1.07183 24.0854 1.12931 24.0767L1.85508 23.9647C1.92365 23.954 1.98819 24.0021 1.99852 24.0721C2.00911 24.142 1.96172 24.2073 1.89289 24.2178L1.26393 24.3149C1.18099 25.1007 0.952844 25.9344 0.94276 25.971C0.927635 26.0255 0.879485 26.0634 0.823773 26.0645C0.823016 26.0642 0.822259 26.0642 0.821503 26.0642Z" fill="black"/>
<path d="M1.14823 24.3311C1.14445 24.3311 1.14067 24.3308 1.13663 24.3306C1.06731 24.3242 1.01613 24.2617 1.02244 24.1915C1.02445 24.1684 1.22537 21.8928 1.06075 21.0947C1.04639 21.0253 1.09025 20.9576 1.15831 20.943C1.22663 20.9269 1.29318 20.973 1.30755 21.0422C1.47973 21.8779 1.28209 24.1195 1.27352 24.2145C1.26772 24.2811 1.21277 24.3311 1.14823 24.3311Z" fill="black"/>
<path d="M10.2441 34.5646C10.2385 34.5646 10.2326 34.5641 10.2269 34.5633C10.1819 34.5575 10.1437 34.5277 10.126 34.4857C10.1101 34.4486 8.59542 30.7368 10.753 28.4166C10.7845 28.3828 10.8319 28.3692 10.8767 28.3792C10.9218 28.3902 10.9574 28.4245 10.97 28.4691C11.0143 28.6269 12.0372 32.3573 10.3448 34.5154C10.3202 34.547 10.283 34.5646 10.2441 34.5646ZM10.7812 28.7736C9.24085 30.6551 10.0113 33.3821 10.2815 34.1681C11.4822 32.395 10.9692 29.5968 10.7812 28.7736Z" fill="black"/>
<path d="M9.92007 30.2794C9.90777 30.2794 9.89548 30.2776 9.88293 30.274L8.97906 30.0018C8.91144 29.9815 8.87302 29.9101 8.89351 29.8422C8.914 29.7746 8.98444 29.7364 9.05308 29.7566L9.95695 30.0289C10.0246 30.0491 10.063 30.1206 10.0425 30.1885C10.0258 30.2435 9.97513 30.2794 9.92007 30.2794Z" fill="black"/>
<path d="M9.76565 32.6158C9.75823 32.6158 9.7508 32.6152 9.74337 32.6137L8.74371 32.4385C8.67405 32.4265 8.62743 32.3599 8.63972 32.2905C8.65176 32.2206 8.71938 32.1721 8.78776 32.1865L9.78742 32.3617C9.85709 32.3737 9.90371 32.4403 9.89141 32.5097C9.88091 32.572 9.82687 32.6158 9.76565 32.6158Z" fill="black"/>
<path d="M1.07297 34.5646C1.03404 34.5646 0.996649 34.547 0.972061 34.5157C-0.720676 32.3573 0.302291 28.6271 0.346601 28.4693C0.359151 28.4248 0.394752 28.3905 0.43983 28.3794C0.484909 28.3697 0.532292 28.383 0.563796 28.4168C2.7214 30.7373 1.20667 34.4491 1.19105 34.486C1.17363 34.528 1.13521 34.5575 1.08988 34.5636C1.0845 34.5641 1.07886 34.5646 1.07297 34.5646ZM0.535622 28.7736C0.347881 29.5971 -0.165394 32.3952 1.03558 34.1682C1.30579 33.3821 2.07596 30.6549 0.535622 28.7736Z" fill="black"/>
<path d="M1.397 30.2793C1.34193 30.2793 1.29096 30.2435 1.27431 30.1884C1.25382 30.1205 1.29224 30.0491 1.35986 30.0288L2.21199 29.7722C2.27909 29.7512 2.35106 29.7901 2.37155 29.8577C2.39204 29.9256 2.35363 29.9971 2.28601 30.0173L1.43388 30.2739C1.42158 30.2775 1.40903 30.2793 1.397 30.2793Z" fill="black"/>
<path d="M1.55144 32.6157C1.49048 32.6157 1.43618 32.5719 1.42542 32.5097C1.41339 32.4403 1.45975 32.3737 1.52941 32.3616L2.47657 32.1959C2.54674 32.1818 2.61283 32.2302 2.62486 32.2999C2.6369 32.3693 2.59054 32.4359 2.52088 32.448L1.57372 32.6137C1.56629 32.6152 1.55861 32.6157 1.55144 32.6157Z" fill="black"/>
</svg>
