<svg width="18" height="20" viewBox="0 0 18 20" fill="none" xmlns="http://www.w3.org/2000/svg">
<path d="M17.9376 19.4808C15.1101 15.7353 13.2993 8.60515 13.7256 2.89542C13.7359 2.75676 13.6524 2.6283 13.5214 2.58158C13.3905 2.53486 13.2445 2.58142 13.1647 2.69531C12.342 3.87037 11.1814 5.7946 10.324 8.28869C9.36559 11.0764 8.97053 14.0003 9.14979 16.9793C9.15819 17.1194 9.26001 17.2361 9.39764 17.2636C12.1436 17.8108 14.8904 18.7137 17.5618 19.9472C17.6034 19.9664 17.6474 19.9757 17.6911 19.9757C17.7824 19.9757 17.8715 19.9352 17.9317 19.8606C18.0204 19.7504 18.0229 19.5938 17.9376 19.4808ZM9.75317 16.7056C9.46774 10.9483 11.4711 6.5298 13.0537 3.98463C12.9897 6.55321 13.3258 9.39881 14.0227 12.1223C14.699 14.7655 15.6748 17.14 16.8138 18.9385C14.4936 17.9448 12.1244 17.1953 9.75317 16.7056Z" fill="black"/>
<path d="M13.9229 0.5433C14.0238 0.43457 14.0331 0.26939 13.9451 0.149975C13.857 0.0305604 13.6965 -0.00933698 13.5628 0.0548944C10.7393 1.41172 7.6658 4.0881 4.90829 7.59096C3.70167 9.12374 2.61193 10.7545 1.75685 12.3071C0.905291 13.8534 0.30303 15.2923 0.0142358 16.4701C0.00497171 16.4995 0 16.5308 0 16.5632C0 16.733 0.136955 16.8707 0.306396 16.872C0.326375 16.872 0.347714 16.8703 0.368373 16.8663C0.379366 16.8642 1.50934 16.6501 3.42844 16.6501C4.87924 16.6501 6.395 16.7695 7.93375 17.005C7.94925 17.0073 7.96487 17.0085 7.98041 17.0085C8.05613 17.0085 8.12984 16.9806 8.18694 16.9293C8.25577 16.8674 8.29313 16.778 8.28893 16.6855C7.86778 7.55286 12.9081 1.63656 13.9229 0.5433ZM7.65749 16.34C6.21479 16.1358 4.79398 16.0324 3.42838 16.0324C2.16945 16.0324 1.24828 16.1202 0.730724 16.1868C1.40318 13.9114 3.15354 10.8184 5.39352 7.97298C7.63569 5.12479 10.0819 2.83901 12.4161 1.39152C10.5971 3.79038 7.4345 9.04315 7.65749 16.34Z" fill="black"/>
</svg>
