<svg width="10" height="39" viewBox="0 0 10 39" fill="none" xmlns="http://www.w3.org/2000/svg">
<path d="M5.39128 1C2.86623 1 1.45186 3.10348 1.45186 5.62853L1.14993 33.3653C1.14405 33.8957 1.17228 34.4257 1.23431 34.9525L1.31045 35.6011L1 38H9.78197L9.47152 35.6011L9.54796 34.9525C9.60999 34.4257 9.63822 33.8957 9.63234 33.3653L9.33041 5.62853C9.33071 3.10348 7.91633 1 5.39128 1Z" stroke="black" stroke-width="0.4" stroke-miterlimit="10" stroke-linecap="round" stroke-linejoin="round"/>
<path d="M1.64642 7.18079H4.97229V8.46962H1.64642" stroke="black" stroke-width="0.4" stroke-miterlimit="10" stroke-linecap="round" stroke-linejoin="round"/>
<path d="M1.58502 9.84753H4.28647V10.7792L1.64647 10.8497" stroke="black" stroke-width="0.4" stroke-miterlimit="10" stroke-linecap="round" stroke-linejoin="round"/>
<path d="M1.585 12.3596H4.17473V13.1499H1.50916" stroke="black" stroke-width="0.4" stroke-miterlimit="10" stroke-linecap="round" stroke-linejoin="round"/>
<path d="M1.58502 14.5258H4.17475V15.4359H1.58502" stroke="black" stroke-width="0.4" stroke-miterlimit="10" stroke-linecap="round" stroke-linejoin="round"/>
<path d="M1.42359 16.8754H4.17472V17.7644H1.40302" stroke="black" stroke-width="0.4" stroke-miterlimit="10" stroke-linecap="round" stroke-linejoin="round"/>
<path d="M1.37012 19.204H4.28647V20.1562H1.40304" stroke="black" stroke-width="0.4" stroke-miterlimit="10" stroke-linecap="round" stroke-linejoin="round"/>
<path d="M1.31659 21.5321H4.46548V22.4352H1.29572" stroke="black" stroke-width="0.4" stroke-miterlimit="10" stroke-linecap="round" stroke-linejoin="round"/>
<path d="M1.26839 23.6205H4.58486V24.6506H1.24487" stroke="black" stroke-width="0.4" stroke-miterlimit="10" stroke-linecap="round" stroke-linejoin="round"/>
<path d="M9.16429 6.91272H6.48401V8.20156H9.16429" stroke="black" stroke-width="0.4" stroke-miterlimit="10" stroke-linecap="round" stroke-linejoin="round"/>
<path d="M9.21365 9.57947H7.03668V10.5111L9.16426 10.5817" stroke="black" stroke-width="0.4" stroke-miterlimit="10" stroke-linecap="round" stroke-linejoin="round"/>
<path d="M9.21367 12.0916H7.12695V12.8818H9.27511" stroke="black" stroke-width="0.4" stroke-miterlimit="10" stroke-linecap="round" stroke-linejoin="round"/>
<path d="M9.21367 14.2577H7.12695V15.1679H9.21367" stroke="black" stroke-width="0.4" stroke-miterlimit="10" stroke-linecap="round" stroke-linejoin="round"/>
<path d="M9.34391 16.6075H7.12695V17.4963H9.36037" stroke="black" stroke-width="0.4" stroke-miterlimit="10" stroke-linecap="round" stroke-linejoin="round"/>
<path d="M9.3871 18.9359H7.03668V19.8881H9.36035" stroke="black" stroke-width="0.4" stroke-miterlimit="10" stroke-linecap="round" stroke-linejoin="round"/>
<path d="M9.43033 21.2639H6.89264V22.167H9.44709" stroke="black" stroke-width="0.4" stroke-miterlimit="10" stroke-linecap="round" stroke-linejoin="round"/>
<path d="M9.46914 23.3524H6.79651V24.3825H9.48796" stroke="black" stroke-width="0.4" stroke-miterlimit="10" stroke-linecap="round" stroke-linejoin="round"/>
<path d="M1.58356 27.1201H3.8696V30.1682H7.38333V27.1201H9.56442" stroke="black" stroke-width="0.4" stroke-miterlimit="10" stroke-linecap="round" stroke-linejoin="round"/>
<path d="M1.18018 34.3593H9.56438" stroke="black" stroke-width="0.4" stroke-miterlimit="10" stroke-linecap="round" stroke-linejoin="round"/>
<path d="M2.6842 2.63696H8.04858" stroke="black" stroke-width="0.4" stroke-miterlimit="10" stroke-linecap="round" stroke-linejoin="round"/>
<path d="M2.6842 3.68115H5.0408" stroke="black" stroke-width="0.4" stroke-miterlimit="10" stroke-linecap="round" stroke-linejoin="round"/>
<path d="M5.88751 3.68115H8.28645" stroke="black" stroke-width="0.4" stroke-miterlimit="10" stroke-linecap="round" stroke-linejoin="round"/>
</svg>
